<svg xmlns="http://www.w3.org/2000/svg" viewBox="0 0 128 128"><g id="fc1b3c4c-3709-412e-b001-f29eb504f576" data-name="图层 2"><g id="aec08acf-9bb4-4e6c-8a10-221b4bfcef2c" data-name="图层 1"><path d="M81.44,35.91a12.47,12.47,0,0,1-3.11-.57c-1.85-1-4.37-2.82-4.32-4.75,6-6.73,15.19-10.33,20-14-8.9,3.92-16.45,7-24,10.91-.58-.56-1.52-.91-1.74-1.67-.69-2.37.81-5.91,1.2-6.84A17.27,17.27,0,0,1,78,10.19c7.37-2.66,13.8-1.24,19.93.57,2.44.72,3.88,3,5,3.6C102.94,29.75,96.14,34.61,81.44,35.91ZM97.93,82.56c5.75,3.27,2.72,10.86-.69,15.68-4.14,5.86-10.22,13.59-16.78,6-3.43-4,.31-10.9,3.49-15a19.29,19.29,0,0,1,11-7A7,7,0,0,1,97.93,82.56Zm8-13.48c1,3.25.66,8.29-1,10.14a5.42,5.42,0,0,1-3.15,1.54,4.28,4.28,0,0,1-2.46-.93C95.11,75.6,94.22,63,99.59,61,102.81,59.89,104.47,64.18,105.92,69.08ZM79.6,41.35c2.21-3.51,9.35-1,13.25,2.79a17.18,17.18,0,0,1,3.79,6.53c.28,1.65,1.13,4.47-.46,5.17C92.42,57.49,78.29,43.44,79.6,41.35ZM70,59.18c1.46-2.41,2.87-4.39,5.57-5.43,3.29-1.26,7.21-1.45,10.16.42,7.38,4.68,11.69,12.21,5.24,20-2.55,3.09-7.72,4-14,1.67C70.34,72.57,65.62,66.41,70,59.18ZM68.23,99.25c-3.93,1-8.77,2-12.23,0s-5.08-6.29-5.25-10a11.36,11.36,0,0,1,3.5-8.34c2.22-2.12,5.61-3.07,8.73-3.34,3-.26,6.3,0,8.74,1.67,5.37,3.54,9.83,6.77,5.24,15C75.37,97.11,71.5,98.39,68.23,99.25ZM70,116.77c-4,.89-10.21.92-14-.41-3.33-1.16-3.28-3.42-3.49-5.42-.24-2.35,2.92-4.21,5.24-5,5.52-1.88,12.66-1.5,17.48,1.67,1.07.71,2.16,2.16,1.74,3.34C76.14,113.3,72.56,116.19,70,116.77ZM35,102.59c-2.83-1.79-4.45-5.19-5.24-8.35-2.91-11.6,2.28-13.11,10.48-8.35,6.6,3.84,15.2,11.22,7,18.37C44.22,106.91,38.46,104.77,35,102.59Zm-7-21.7a1.9,1.9,0,0,1-1.75,0c-2.95-1.6-4.64-5.65-4.68-8.89-.05-4.49,1.82-12,6.43-11.15C34,62,34.28,77,28,80.89ZM32.35,45.6c2.13-2.53,5.68-4.21,9-5.08a17,17,0,0,1,7.7.29c-6.41,5-16.88,16.89-19.22,15C27,53.59,30.05,48.34,32.35,45.6ZM27.2,13.9c1.33-2.54,6.72-5.94,9.52-6C45.31,7.68,56,9.61,59.49,15.77c1.14,2,2.39,4.47,1.75,6.68a4.84,4.84,0,0,1-3.5,3.34c-4.13.68-11.7-5.59-19.22-8.35A138,138,0,0,1,50.37,26c1.57,1.34,3.88,2.78,3.88,4.79a5.63,5.63,0,0,1-3.5,5C36.68,40.38,22.24,23.3,27.2,13.9Zm34,47c.88,5.21-1,11.71-5.24,15-4.11,3.17-11.44,4.6-15.73,1.67s-4.71-10-3.49-15a13.07,13.07,0,0,1,7-8.35,15.2,15.2,0,0,1,12.24,0A9.72,9.72,0,0,1,61.24,60.85ZM58,50.11c-1.27-.28-4.68-3-5.36-4a3.41,3.41,0,0,1,0-4c1-1.77,2.89-1.87,4.93-2.32A23,23,0,0,1,70,40.81c2,.72,4.56,1.45,5.25,3.34a4.72,4.72,0,0,1-1.75,5C68.75,52.42,63.71,51.39,58,50.11Zm50.38-37.68a3.61,3.61,0,0,0-.5-1.72c-8.51-7-24.65-10.21-37.84-1-2,1.39-5.73,5.45-5.91,5.27C58.05,9.07,49.32,2,32.56,4.52c-4.8.42-8.57,3.22-9.75,5.8C17.5,22,25.65,30.81,33.28,39.14c-35.58,26-2.6,95.45,38.44,83.49,42-12.26,49.34-53.73,21.85-85.09C104.72,34.17,109.49,22.49,108.42,12.43Z" style="fill:#fff"/><rect width="128" height="128" style="fill:none"/></g></g></svg>